<svg width="80" height="80" viewBox="0 0 80 80" fill="none" xmlns="http://www.w3.org/2000/svg">
<path fill-rule="evenodd" clip-rule="evenodd" d="M40 75C59.33 75 75 59.33 75 40C75 20.67 59.33 5 40 5C20.67 5 5 20.67 5 40C5 59.33 20.67 75 40 75ZM40 80C62.0914 80 80 62.0914 80 40C80 17.9086 62.0914 0 40 0C17.9086 0 0 17.9086 0 40C0 62.0914 17.9086 80 40 80ZM16.5 40C16.5 38.6193 17.6193 37.5 19 37.5H37.5V19C37.5 17.6193 38.6193 16.5 40 16.5C41.3807 16.5 42.5 17.6193 42.5 19V37.5H61C62.3807 37.5 63.5 38.6193 63.5 40C63.5 41.3807 62.3807 42.5 61 42.5H42.5V61C42.5 62.3807 41.3807 63.5 40 63.5C38.6193 63.5 37.5 62.3807 37.5 61V42.5H19C17.6193 42.5 16.5 41.3807 16.5 40Z" fill="#FF4081" fill-opacity="0.9"/>
</svg>
